<?xml version="1.0" encoding="UTF-8" standalone="no"?>
<!DOCTYPE svg PUBLIC "-//W3C//DTD SVG 1.1//EN" "http://www.w3.org/Graphics/SVG/1.1/DTD/svg11.dtd">
<svg width="100%" height="100%" viewBox="0 0 4886 4060" version="1.1" xmlns="http://www.w3.org/2000/svg" xmlns:xlink="http://www.w3.org/1999/xlink" xml:space="preserve" xmlns:serif="http://www.serif.com/" style="fill-rule:evenodd;clip-rule:evenodd;stroke-linejoin:round;stroke-miterlimit:2;">
    <g transform="matrix(1,0,0,1,-11654.4,-5634.58)">
        <g id="web-without-text" serif:id="web without text" transform="matrix(1,0,0,0.831015,6327.85,5987.43)">
            <rect x="5326.57" y="-424.604" width="4885.54" height="4885.54" style="fill:none;"/>
            <g id="Rat" transform="matrix(1,0,0,1.20335,-237.738,-167.313)">
                <g transform="matrix(4.16667,0,0,4.16667,5795.57,329.396)">
                    <path d="M409.107,0.79L409.105,0.79C382.307,0.792 356.114,9.368 335.346,24.938C319.266,36.993 307.443,51.273 300.204,67.38C293.011,83.387 290.736,100.695 293.624,117.432C297.83,141.812 312.529,162.967 333.778,176.59C303.786,187.426 274.933,204.858 247.801,228.563C220.873,252.091 195.446,281.961 172.226,317.344C121.795,394.194 96.755,473.009 88.33,503.328L70.242,568.424L133.299,544.163C179.058,526.557 214.892,517.631 239.806,517.631C266.848,517.632 272.875,526.94 284.883,545.483C290.344,553.917 296.535,563.477 305.232,571.921C308.205,574.807 311.326,577.413 314.592,579.736L214.967,605.255L318.323,642.852C377.32,664.313 439.617,675.195 503.483,675.195C561.219,675.195 619.803,665.831 668.446,648.828C689.876,641.337 708.965,632.453 723.648,623.137C742.333,611.283 754.023,598.86 759.389,585.16L764.532,572.028L785.739,568.725C797.094,566.955 808.267,564.869 816.732,563.249C849.593,556.961 911.518,539.474 927.164,532.063C942.852,524.634 955.308,516.361 965.244,506.773C980.044,492.492 988.633,475.833 990.772,457.258C993.178,436.366 987.066,414.469 972.605,392.175C958.949,371.123 937.903,349.436 908.264,325.875C903.789,322.318 899.647,319.109 895.945,316.332C854.612,283.351 794.465,253.855 751.211,234.89C705.95,215.045 658.288,197.717 622.661,188.013C612.911,129.91 584.136,86.697 541.446,66.087C529.398,59.717 516.508,55.575 503.536,53.858C502.2,51.283 500.743,48.771 499.166,46.327C492.617,36.183 484.144,27.436 473.983,20.328C455.972,7.729 432.932,0.79 409.107,0.79Z" style="fill:rgb(168,128,59);fill-rule:nonzero;"/>
                </g>
                <g transform="matrix(4.16667,0,0,4.16667,5795.57,329.396)">
                    <path d="M409.102,23.79C387.253,23.79 365.959,30.733 349.143,43.34C323.842,62.309 311.866,87.89 316.289,113.521C320.479,137.804 339.116,157.877 364.928,165.908C368.687,167.077 374.425,169.585 379.254,173.118C383.871,176.494 385.06,178.956 385.16,179.536C384.948,180.032 381.623,186.535 356.616,193.438C323.97,202.449 292.451,220.095 262.934,245.884C237.579,268.037 213.53,296.326 191.456,329.963C142.802,404.103 118.627,480.207 110.491,509.485L104.639,530.546L125.04,522.697C173.442,504.074 212.055,494.631 239.807,494.631C257.695,494.631 271.527,498.475 282.096,506.386C291.564,513.472 297.699,522.947 304.194,532.981C314.227,548.479 325.598,566.045 350.116,570.026C358.724,571.425 367.241,572.133 375.432,572.133C395.174,572.133 413.941,568.103 432.362,559.865C408.632,573.872 375.04,587.995 327.217,600.245L292.747,609.074L326.186,621.238C385.816,642.93 448.096,653.928 511.296,653.928C562.435,653.928 614.072,646.282 656.694,632.399C674.726,626.526 690.777,619.635 703.113,612.47C716.179,604.88 724.734,597.233 728.538,589.742L731.245,584.411L728.243,579.239C725.589,574.667 726.717,571.088 730.902,561.206C733.798,554.368 737.401,545.857 738.186,535.518L740.434,505.944L719.446,526.901C699.536,546.781 683.628,559.102 665.862,559.102C659.39,559.102 652.383,557.509 644.641,554.259C657.157,537.751 671.712,524.581 688.03,515.017C708.004,503.31 730.074,497.375 753.626,497.375C765.868,497.375 778.495,498.999 791.334,502.215C782.704,509.639 770.886,517.937 762.215,523.321L749.898,530.964L760.576,540.768L768.028,547.612L771.982,551.242L777.277,550.359C777.277,550.359 803.849,545.93 817.157,543.704C858.103,536.855 900.727,518.8 917.152,511.354C948.025,497.36 965.128,478.546 967.985,455.434C969.907,439.893 965.059,422.971 953.578,405.137C941.45,386.3 921.389,365.69 893.952,343.88C889.53,340.365 885.464,337.217 881.863,334.521C860.676,317.575 819.262,290.473 742.15,257.392C696.331,237.736 644.348,218.819 603.098,206.787C602.758,206.688 602.53,206.597 602.39,206.533C601.933,205.309 601.783,201.914 601.682,199.62C601.611,198.011 601.538,196.346 601.391,194.566C599.151,167.323 587.3,138.024 569.692,116.191C559.833,103.967 548.521,94.305 536.073,87.472C522.145,79.827 507.172,75.951 491.568,75.95C490.337,75.949 489.097,75.974 487.853,76.023C483.229,61.027 474.013,48.424 460.818,39.188C446.632,29.259 428.264,23.79 409.102,23.79Z" style="fill:white;fill-rule:nonzero;"/>
                </g>
                <g transform="matrix(4.16667,0,0,4.16667,5795.57,329.396)">
                    <path d="M121.09,512.431C334.646,430.263 289.213,548.992 351.88,559.169C414.546,569.346 457.435,538.975 503.845,491.323C498.167,499.429 498.799,567.649 329.947,610.9C525.779,682.138 702.425,616.87 718.73,584.762C709.302,568.52 725.604,555.925 727.218,534.685C693.554,568.3 669.625,581.73 628.261,558.405C668.13,497.685 733.854,469.618 811.25,496.726C802.968,510.974 768.015,532.666 768.015,532.666L775.468,539.51C775.468,539.51 802.037,535.08 815.342,532.855C850.349,527 888.349,512.333 912.611,501.336C955.376,481.951 997.342,440.119 887.107,352.491C882.608,348.914 878.624,345.834 875.13,343.221C807.854,289.326 667.932,237.156 600.019,217.348C589.682,214.333 591.233,205.256 590.428,195.468C586.182,143.833 543.932,78.583 479.344,87.833C470.409,33.214 398.879,19.8 355.742,52.141C307.574,88.254 323.68,141.555 368.196,155.404C386.753,161.177 424.729,186.047 359.543,204.041C227.138,240.59 147.723,416.582 121.09,512.431Z" style="fill:rgb(34,53,80);fill-rule:nonzero;"/>
                </g>
                <g transform="matrix(4.16667,0,0,4.16667,5795.57,329.396)">
                    <path d="M651.698,261.613L723.23,287.332C718.477,327.859 663.945,319.182 651.698,261.613Z" style="fill:white;fill-rule:nonzero;"/>
                </g>
                <g>
                    <g transform="matrix(4.16667,0,0,4.16667,5795.57,329.396)">
                        <path d="M558.407,291.24C569.026,274.766 600.295,264.514 629.717,258.141C625.815,279.428 648.578,303.953 648.578,303.953C633.603,311.087 613.315,292.876 613.315,292.876C668.056,362.842 717.89,341.216 733.461,321.461L854.189,376.199L793.769,326.199C793.769,326.199 837.876,335.23 892.207,374.231C892.914,374.946 893.632,375.669 894.358,376.401C918.814,394.644 958.721,447.453 937.802,464.978C919.009,480.723 919.49,454.681 902.72,416.59C893.565,433.348 885.643,448.212 864.491,439.338C854.404,435.106 840.001,448.776 827.281,449.901C789.57,453.237 751.723,454.367 714.437,454.057C756.596,446.225 826.375,436.845 840.828,429.973C857.274,422.153 857.513,409.879 857.513,409.879C768.415,377.759 634.466,427.719 565.141,441.076C565.141,441.076 636.62,395.916 775.605,374.924C741.194,373.636 643.534,373.427 622.636,372.749C597.358,371.928 577.686,357.509 559.855,336.514C546.333,320.592 548.176,307.108 558.407,291.24Z" style="fill:rgb(124,128,129);fill-rule:nonzero;"/>
                    </g>
                    <g transform="matrix(4.16667,0,0,4.16667,5795.57,329.396)">
                        <path d="M564.049,224.285C558.76,191.313 536.827,145.813 507.452,121.54C524.294,122.715 536.479,139.6 550.779,157.092C543.29,129.293 525.468,106.27 498.271,104.324C474.226,102.602 449.062,110.356 439.717,139.345C426.286,181.014 453.508,205.354 477.114,231.602C447.473,219.167 425.641,189.116 425.067,158.279C424.475,126.473 438.904,95.994 472.026,89C555.693,71.334 582.675,166.317 564.049,224.285Z" style="fill:rgb(124,128,129);fill-rule:nonzero;"/>
                    </g>
                </g>
            </g>
        </g>
    </g>
</svg>
