<?xml version="1.0" encoding="UTF-8" standalone="no"?>
<svg width="100%" height="100%" viewBox="0 0 65 66" version="1.1" xmlns="http://www.w3.org/2000/svg" xmlns:xlink="http://www.w3.org/1999/xlink" xml:space="preserve" style="fill-rule:evenodd;clip-rule:evenodd;stroke-linejoin:round;stroke-miterlimit:2;">
  <g id="ArtBoard1" transform="matrix(1.01913,0,0,1.01347,-0.246236,-0.19531)">
    <g transform="matrix(0.981233,0,0,0.986709,0.164178,0.94679)">
      <path d="M59.404,1C57.537,1 55.962,2.458 55.818,4.32L52.851,42.897L52.818,42.919L52.846,42.96L52.445,48.167L52.215,51.152C52.137,52.189 51.261,53 50.222,53L48.9,53C47.927,53 46.957,52.883 46.001,52.7L46.001,47.64C46.001,43.312 42.914,39.592 38.66,38.794L30,37.17L30,35.208C31.015,34.544 31.91,33.717 32.656,32.765L35.883,30.614C37.835,29.312 39,27.135 39,24.789L39,14C39,6.832 33.168,1 26,1L22,1C14.832,1 9,6.832 9,14L9,24.789C9,27.135 10.165,29.312 12.117,30.613L15.344,32.764C16.09,33.716 16.985,34.543 18,35.207L18,37.169L9.341,38.793C5.087,39.591 2,43.312 2,47.64L2,54L5,54L5,63L54.252,63C56.341,63 58.054,61.431 58.236,59.35L62.986,5.204C62.996,5.098 63,4.992 63,4.886L63,4.596C63,2.613 61.387,1 59.404,1ZM57.812,4.474C57.876,3.647 58.575,3 59.404,3C60.284,3 61,3.716 61,4.596L61,4.886C61,4.932 60.998,4.977 60.994,5.026L59.897,17.534L56.641,19.705L57.812,4.474ZM59.431,22.844L56.235,24.974L56.446,22.237L59.673,20.086L59.431,22.844ZM56.041,27.508L59.208,25.397L57.972,39.484L54.966,41.488L56.041,27.508ZM54.77,44.022L57.747,42.037L57.495,44.91L57.445,44.835L54.56,46.759L54.77,44.022ZM44,47.64L44,48L42.5,48C42.225,48 42,47.776 42,47.5C42,47.224 42.225,47 42.5,47L43.943,47C43.963,47.213 44,47.422 44,47.64ZM22.503,34.865L20.853,31.977C20.613,31.557 20.402,31.123 20.207,30.682C21.103,30.824 22.044,30.93 23,30.975L23,34.941C22.832,34.922 22.668,34.893 22.503,34.865ZM35,20L37,20L37,22L35,22L35,20ZM25,26L28.962,26C28.901,26.849 28.763,27.689 28.551,28.51C27.44,28.73 26.23,28.906 25,28.971L25,26ZM30.967,26L33,26C33,26.456 32.955,26.901 32.889,27.34C32.377,27.517 31.627,27.758 30.713,28.005C30.839,27.343 30.925,26.674 30.967,26ZM33,24L15,24L15,18L17.697,18L17.949,18.168C21.545,20.565 26.455,20.565 30.051,18.168L30.303,18L33,18L33,24ZM13,22L11,22L11,20L13,20L13,22ZM15,26L17.033,26C17.075,26.674 17.162,27.343 17.288,28.005C16.374,27.758 15.624,27.517 15.112,27.34C15.045,26.901 15,26.456 15,26ZM19.038,26L23,26L23,28.971C21.77,28.906 20.56,28.73 19.449,28.51C19.237,27.689 19.099,26.849 19.038,26ZM25,30.975C25.956,30.93 26.897,30.824 27.793,30.682C27.598,31.123 27.387,31.557 27.147,31.977L25.497,34.865C25.332,34.893 25.168,34.922 25,34.941L25,30.975ZM28.376,33.858L28.884,32.97C29.385,32.093 29.798,31.172 30.124,30.222C30.904,30.038 31.61,29.844 32.213,29.663C31.418,31.439 30.066,32.913 28.376,33.858ZM34.773,28.949L34.547,29.099C34.838,28.115 35,27.077 35,26L35,24L37,24L37,24.789C37,26.464 36.168,28.02 34.773,28.949ZM22,3L26,3C32.065,3 37,7.935 37,14L37,18L35,18L35,16L29.697,16L28.941,16.504C26.003,18.461 21.996,18.461 19.058,16.504L18.303,16L13,16L13,18L11,18L11,14C11,7.935 15.935,3 22,3ZM13.227,28.949C11.832,28.02 11,26.464 11,24.789L11,24L13,24L13,26C13,27.077 13.162,28.115 13.452,29.1L13.227,28.949ZM15.786,29.662C16.39,29.844 17.095,30.037 17.875,30.221C18.201,31.171 18.614,32.093 19.115,32.969L19.623,33.857C17.934,32.913 16.582,31.439 15.786,29.662ZM24,37C25.412,37 26.758,36.723 28,36.236L28,37.519L24,40.719L20,37.519L20,36.236C21.242,36.723 22.588,37 24,37ZM4.057,47L5.5,47C5.775,47 6,47.224 6,47.5C6,47.776 5.775,48 5.5,48L4,48L4,47.64C4,47.422 4.037,47.213 4.057,47ZM7,54L9.018,54C9.064,55.581 9.535,57.107 10.415,58.425L11,59.303L11,61L7,61L7,54ZM13,61L13,58.697L12.079,57.315C11.373,56.257 11,55.025 11,53.752C11,52.76 11.234,51.767 11.679,50.879L12,50.236C12.654,48.927 13,47.462 13,46L11,46C11,47.153 10.728,48.309 10.211,49.342L9.89,49.985C9.571,50.622 9.343,51.303 9.194,52L4,52L4,50L5.5,50C6.879,50 8,48.878 8,47.5C8,46.122 6.879,45 5.5,45L4.535,45C5.414,42.854 7.317,41.208 9.71,40.759L18.733,39.067L24,43.281L29.267,39.068L38.29,40.76C40.683,41.209 42.586,42.855 43.465,45.001L42.5,45.001C41.121,45.001 40,46.123 40,47.501C40,48.879 41.121,50.001 42.5,50.001L44,50.001L44,52.001L43.448,52.001C42.942,51.812 42.443,51.604 41.96,51.363C41.486,51.125 40.956,51 40.427,51C39.786,51 39.192,51.188 38.678,51.496C38.533,50.977 38.352,50.467 38.111,49.986L37.79,49.342C37.272,48.309 37,47.153 37,46L35,46C35,47.462 35.346,48.927 36,50.236L36.321,50.88C36.766,51.768 37,52.761 37,53.752C37,54.903 36.68,56.014 36.099,57L29,57C27.897,57 27,57.897 27,59L27,61L13,61ZM29,59L35,59L35,61L29,61L29,59ZM45,61L37,61L37,59.303L37.202,59L45,59L45,61ZM56.244,59.175C56.153,60.215 55.297,61 54.252,61L47,61L47,59C47,57.897 46.103,57 45,57L39.294,57C39.099,56.411 39,55.799 39,55.171L39,54.427C39,53.64 39.64,53 40.427,53C40.648,53 40.868,53.052 41.066,53.151C41.693,53.464 42.34,53.738 43.001,53.973L43.001,54L43.083,54C44.949,54.655 46.925,55 48.901,55L50.223,55C52.3,55 54.052,53.377 54.211,51.307L54.366,49.292L57.283,47.347L56.244,59.175Z" style="fill-rule:nonzero;" />
      <path d="M18.502,7.939L17.498,6.209C14.724,7.817 13,10.803 13,14L15,14C15,11.513 16.342,9.191 18.502,7.939Z" style="fill-rule:nonzero;" />
      <path d="M22,7L22,5C21.239,5 20.482,5.096 19.75,5.285L20.25,7.222C20.818,7.074 21.407,7 22,7Z" style="fill-rule:nonzero;" />
      <circle cx="29" cy="21" r="1" />
      <circle cx="19" cy="21" r="1" />
      <path d="M21,13C21,14.654 22.346,16 24,16C25.654,16 27,14.654 27,13C27,11.346 25.654,10 24,10C22.346,10 21,11.346 21,13ZM24,12C24.552,12 25,12.449 25,13C25,13.551 24.552,14 24,14C23.448,14 23,13.551 23,13C23,12.449 23.448,12 24,12Z" style="fill-rule:nonzero;" />
    </g>
  </g>
</svg>
