<?xml version="1.0" standalone="no"?>
<!DOCTYPE svg PUBLIC "-//W3C//DTD SVG 20010904//EN"
 "http://www.w3.org/TR/2001/REC-SVG-20010904/DTD/svg10.dtd">
<svg version="1.0" xmlns="http://www.w3.org/2000/svg"
 width="700.000000pt" height="700.000000pt" viewBox="0 0 700.000000 700.000000"
 preserveAspectRatio="xMidYMid meet">
<metadata>
Created by potrace 1.14, written by Peter Selinger 2001-2017
</metadata>
<g transform="translate(0.000000,700.000000) scale(0.100000,-0.100000)"
fill="#000000" stroke="none">
<path d="M2515 5920 c-299 -34 -583 -240 -685 -500 -101 -256 -20 -550 198
-717 l52 -41 -75 -31 c-320 -133 -603 -361 -894 -716 -192 -235 -462 -700
-581 -1000 -4 -11 -15 -36 -23 -55 -62 -143 -139 -365 -195 -565 -108 -381
-123 -438 -118 -442 4 -5 291 100 361 132 163 73 558 191 705 210 162 22 275
9 343 -37 43 -29 54 -43 137 -168 35 -52 94 -125 131 -163 l67 -67 -52 -14
c-28 -8 -141 -37 -251 -65 -110 -28 -246 -63 -302 -78 l-102 -27 87 -32 c280
-104 623 -228 727 -264 121 -41 388 -114 459 -125 21 -3 41 -7 45 -9 3 -3 27
-7 51 -11 25 -3 70 -10 100 -15 30 -6 75 -12 100 -15 25 -3 61 -7 80 -10 239
-29 679 -25 920 10 14 2 48 7 75 11 28 3 59 8 70 10 11 3 35 7 54 10 37 6 33
5 145 29 186 39 460 132 611 207 73 37 207 124 257 167 59 51 113 130 143 207
l27 72 57 7 c63 8 74 9 186 30 44 8 95 17 112 20 142 24 541 130 720 192 179
61 351 178 445 303 42 55 85 149 98 215 12 57 15 178 6 220 -11 53 -30 115
-49 160 -19 46 -103 194 -116 205 -3 3 -26 30 -51 60 -138 171 -409 403 -665
572 -99 65 -361 217 -380 220 -5 1 -30 13 -55 27 -25 15 -79 43 -120 63 -357
173 -774 338 -1122 443 -86 26 -87 26 -94 63 -11 64 -43 179 -68 246 -107 284
-279 480 -526 599 -88 43 -191 77 -231 77 -10 0 -35 26 -59 61 -56 83 -85 113
-155 166 -160 122 -380 177 -600 153z"/>
</g>
</svg>
