<?xml version="1.0" encoding="UTF-8" standalone="no"?>
<!DOCTYPE svg PUBLIC "-//W3C//DTD SVG 1.1//EN" "http://www.w3.org/Graphics/SVG/1.1/DTD/svg11.dtd">
<svg width="100%" height="100%" viewBox="0 0 512 512" version="1.1" xmlns="http://www.w3.org/2000/svg" xmlns:xlink="http://www.w3.org/1999/xlink" xml:space="preserve" xmlns:serif="http://www.serif.com/" style="fill-rule:evenodd;clip-rule:evenodd;stroke-linejoin:round;stroke-miterlimit:2;">
    <rect x="0.004" y="0" width="511.959" height="511.959" style="fill:none;"/>
    <path d="M191.938,78.448L191.937,78.448C177.828,78.45 164.038,82.965 153.104,91.162C144.638,97.509 138.413,105.027 134.602,113.507C130.815,121.935 129.617,131.047 131.137,139.859C133.352,152.695 141.091,163.832 152.278,171.005C136.488,176.71 121.297,185.887 107.012,198.368C92.835,210.755 79.448,226.481 67.223,245.11C40.672,285.57 27.489,327.065 23.053,343.028L13.53,377.3L46.729,364.527C70.82,355.258 89.686,350.558 102.803,350.558C117.04,350.559 120.213,355.459 126.536,365.222C129.411,369.662 132.67,374.695 137.249,379.141C138.814,380.661 140.457,382.033 142.177,383.256L89.726,396.691L144.141,416.485C175.202,427.784 208.001,433.513 241.625,433.513C272.023,433.513 302.866,428.583 328.476,419.632C339.759,415.688 349.809,411.01 357.539,406.106C367.377,399.865 373.531,393.324 376.356,386.111L379.064,379.197L390.229,377.459C396.208,376.527 402.09,375.428 406.547,374.575C423.848,371.265 456.45,362.058 464.688,358.156C472.947,354.245 479.505,349.89 484.736,344.842C492.528,337.323 497.05,328.552 498.176,318.773C499.443,307.773 496.225,296.245 488.612,284.507C481.422,273.424 470.342,262.006 454.737,249.601C452.381,247.729 450.2,246.039 448.251,244.577C426.49,227.213 394.823,211.684 372.051,201.699C348.221,191.251 323.128,182.128 304.371,177.019C299.238,146.428 284.088,123.677 261.612,112.827C255.269,109.473 248.483,107.292 241.653,106.388C240.949,105.031 240.182,103.708 239.353,102.423C235.905,97.082 231.444,92.477 226.094,88.735C216.612,82.102 204.481,78.448 191.938,78.448Z" style="fill:rgb(168,128,59);fill-rule:nonzero;"/>
    <path d="M191.935,90.558C180.432,90.558 169.221,94.213 160.368,100.85C147.047,110.837 140.742,124.305 143.07,137.8C145.276,150.584 155.088,161.153 168.678,165.381C170.657,165.996 173.678,167.317 176.221,169.177C178.651,170.954 179.277,172.25 179.33,172.556C179.218,172.817 177.468,176.241 164.302,179.875C147.114,184.619 130.52,193.91 114.98,207.487C101.631,219.15 88.969,234.044 77.348,251.753C51.732,290.787 39.004,330.855 34.721,346.269L31.64,357.358L42.38,353.225C67.863,343.421 88.193,338.449 102.804,338.449C112.221,338.449 119.504,340.473 125.068,344.638C130.053,348.369 133.283,353.357 136.703,358.64C141.985,366.799 147.971,376.047 160.88,378.143C165.412,378.88 169.896,379.253 174.208,379.253C184.602,379.253 194.483,377.131 204.181,372.794C191.688,380.168 174.002,387.604 148.824,394.053L130.676,398.702L148.281,405.106C179.675,416.526 212.465,422.317 245.739,422.317C272.663,422.317 299.849,418.291 322.289,410.982C331.783,407.89 340.233,404.262 346.728,400.49C353.607,396.494 358.111,392.467 360.114,388.524L361.539,385.717L359.958,382.994C358.561,380.587 359.155,378.703 361.358,373.5C362.883,369.9 364.78,365.419 365.193,359.975L366.377,344.405L355.327,355.439C344.844,365.905 336.469,372.392 327.116,372.392C323.708,372.392 320.019,371.553 315.943,369.842C322.533,361.151 330.196,354.217 338.787,349.182C349.303,343.018 360.922,339.894 373.322,339.894C379.767,339.894 386.415,340.749 393.175,342.442C388.631,346.35 382.409,350.719 377.844,353.554L371.359,357.578L376.981,362.74L380.905,366.343L382.986,368.254L385.774,367.789C385.774,367.789 399.764,365.457 406.77,364.285C428.328,360.679 450.769,351.174 459.416,347.253C475.671,339.886 484.675,329.98 486.179,317.812C487.191,309.63 484.639,300.721 478.594,291.332C472.209,281.414 461.647,270.563 447.202,259.081C444.874,257.23 442.733,255.573 440.837,254.153C429.683,245.231 407.879,230.963 367.28,213.546C343.157,203.197 315.789,193.238 294.071,186.903C293.892,186.851 293.772,186.803 293.698,186.769C293.458,186.125 293.379,184.337 293.326,183.13C293.288,182.283 293.25,181.406 293.173,180.469C291.993,166.126 285.754,150.7 276.483,139.206C271.293,132.77 265.337,127.683 258.784,124.085C251.451,120.06 243.568,118.02 235.352,118.019C234.7,118.019 234.048,118.032 233.396,118.058C230.962,110.162 226.11,103.527 219.163,98.665C211.694,93.437 202.024,90.558 191.935,90.558L191.935,90.558Z" style="fill:white;fill-rule:nonzero;"/>
    <path d="M40.301,347.82C152.735,304.56 128.815,367.069 161.808,372.427C194.801,377.785 217.382,361.795 241.816,336.707C238.827,340.975 239.159,376.892 150.261,399.663C253.364,437.169 346.366,402.806 354.95,385.902C349.986,377.351 358.569,370.719 359.419,359.537C341.695,377.235 329.097,384.305 307.319,372.025C328.31,340.057 362.913,325.28 403.661,339.552C399.3,347.053 380.898,358.474 380.898,358.474L384.822,362.077C384.822,362.077 398.81,359.745 405.815,358.573C424.246,355.491 444.252,347.769 457.026,341.979C479.541,331.773 501.635,309.749 443.598,263.614C441.229,261.731 439.132,260.109 437.292,258.734C401.873,230.359 328.206,202.892 292.45,192.463C287.008,190.876 287.825,186.097 287.401,180.944C285.165,153.759 262.921,119.405 228.917,124.275C224.212,95.519 186.553,88.457 163.842,105.484C138.482,124.497 146.962,152.559 170.399,159.851C180.169,162.89 200.163,175.984 165.843,185.457C96.134,204.7 54.323,297.357 40.301,347.82Z" style="fill:rgb(34,53,80);fill-rule:nonzero;"/>
    <path d="M319.659,215.768L357.319,229.309C354.817,250.646 326.107,246.077 319.659,215.768Z" style="fill:white;fill-rule:nonzero;"/>
    <path d="M270.542,231.366C276.133,222.693 292.596,217.296 308.086,213.94C306.032,225.148 318.016,238.06 318.016,238.06C310.132,241.816 299.45,232.228 299.45,232.228C328.271,269.064 354.508,257.678 362.706,247.277L426.267,276.096L394.457,249.772C394.457,249.772 417.679,254.527 446.283,275.06C446.656,275.436 447.034,275.817 447.416,276.203C460.291,285.807 481.302,313.61 470.288,322.837C460.394,331.127 460.647,317.416 451.818,297.361C446.998,306.184 442.827,314.01 431.691,309.338C426.381,307.11 418.798,314.307 412.101,314.899C392.246,316.656 372.32,317.251 352.69,317.087C374.886,312.964 411.624,308.025 419.233,304.407C427.892,300.29 428.017,293.828 428.017,293.828C381.108,276.918 310.586,303.221 274.087,310.253C274.087,310.253 311.72,286.477 384.894,275.425C366.777,274.747 315.36,274.637 304.358,274.28C291.049,273.848 280.692,266.256 271.305,255.203C264.185,246.82 265.156,239.721 270.542,231.366ZM273.513,196.116C270.728,178.756 259.181,154.801 243.715,142.022C252.582,142.64 258.997,151.53 266.526,160.739C262.583,146.104 253.2,133.982 238.881,132.958C226.222,132.051 212.973,136.134 208.053,151.396C200.982,173.334 215.314,186.149 227.742,199.968C212.137,193.421 200.643,177.599 200.34,161.364C200.029,144.619 207.625,128.572 225.064,124.89C269.113,115.589 283.319,165.596 273.513,196.116Z" style="fill:rgb(124,128,129);fill-rule:nonzero;"/>
</svg>
