<svg viewBox="0 0 4886 4886" xmlns="http://www.w3.org/2000/svg" fill-rule="evenodd" clip-rule="evenodd" stroke-linejoin="round" stroke-miterlimit="2">
  <path fill="none" d="M.001 0h4885.54v4885.54H.001z"/>
  <path d="M4093.371 3731.532c-5.612-28.283-24.153-67.958-80.627-96.337-35.173-17.68-77.453-22.171-129.57-22.304h-1.105c-11.583 0-819.925-1.046-819.925-1.046-2.288-12.584-5.755-24.325-10.624-35.204-21.758-48.58-61.127-80.484-113.88-92.271-23.086-5.15-69.043-12.042-200.993-12.388l-188.397-.487-54.37 186.329c-17.561-14.97-38.855-25.588-63-30.988-19.035-4.25-56.682-9.933-163.376-10.212l-987.292-2.575c-2.17-15.242-6.07-29.225-11.822-42.067-21.761-48.575-61.13-80.479-113.874-92.266-23.083-5.15-69.031-12.038-200.99-12.384l-188.4-.491-250.35 857.967 3222.099 14.237.291-.254c42.697-.566 83.271-5.037 120.531-19.9 42.88-17.12 76.088-39.912 98.705-67.742 21.39-26.325 38.865-63.345 53.409-113.179 21.394-73.317 23.196-126.67 5.653-167.93-5.742-13.5-14.188-27.012-25.719-40.92l67.827.175 20.099-68.846c16.988-58.212 21.832-97.967 15.7-128.917z" fill="#a8803b" fill-rule="nonzero"/>
  <path d="M3743.067 4157.062c.671-4.57 25.556-91.992 25.556-91.992 5.501 5.304 8.149 8.517 9.412 10.304.53 1.446 3.58 12.35-7.28 49.546-3.524 12.092-8.1 21.346-13.233 26.771-3.622 3.833-7.23 5.463-12.085 5.463-.842 0-1.639-.034-2.37-.092zm-656.726-122.117c8.607-20.367 19.434-44.37 31.983-71.883-.46 3.483-.92 6.946-1.374 10.37-2.872 21.68-5.623 42.434-8.553 61.555l-22.056-.042zm166.444 227.846l59.694-441.204 69.014.179-128.708 441.025zm588.684-399.321c-5.169-5.013-6.107-7.492-6.167-7.663l-.059-.237-.02-.083c-.565-2.096-1.922-10.621 4.402-32.25 4.29-14.725 9.102-21.913 12.384-25.35 3.583-3.75 6.606-4.63 9.143-4.78-.753 4.142-19.683 70.363-19.683 70.363zm-1099.585-64.625l33.743-115.608c6.89.779 10.595 1.966 12.346 2.712.288 2.833.22 10.088-4.182 25.167l-11.582 39.72c-11.316 38.759-19.969 44.326-20.332 44.542-1.843 1.004-4.976 2.317-9.993 3.467zM2582.54 3516.67l-222.977 764.088 241.506.629 94.875-325.113c5.687.563 9.245 1.388 11.356 2.05-.123 6.03-1.846 21.23-11.933 55.788l-78.005 267.317 397.966 1.025 35.564-103.621 17.56.037-30.1 103.671 410.133 1.058 134.618-461.304 65.14.17a661.618 661.618 0 00-2.187 7.313c-9.84 33.734-13.152 61.23-10.125 84.059 3.183 23.825 10.969 43.166 23.14 57.512 10.577 12.475 32.023 31.171 65.562 57.15a1065.44 1065.44 0 019.605 7.434l-147.522-.388-15.22 52.159c-13.473 46.191-18.728 81.504-16.056 107.966 3.102 30.584 20.668 55.684 52.215 74.613 35.711 21.466 83.117 26.079 116.595 26.167h.92c40.6 0 78.85-7.055 113.69-20.963 35.855-14.313 63.106-32.725 81-54.733 17.662-21.738 32.493-53.721 45.355-97.788 18.04-61.813 20.532-106.63 7.617-137.013-12.244-28.816-47.183-62.791-106.728-103.762l160.282.425 10.851-37.171c14.657-50.18 19.356-84.275 14.789-107.296-5.12-25.92-23.642-47.092-55.058-62.908-34.969-17.567-80.733-21.359-112.965-21.446h-1.017c-39.45 0-75.576 6.183-107.373 18.375-26.222 10.058-48.564 23.542-66.636 40.187l5.728-19.625 7.946-27.237-28.66-.075-344.862-.904-40.029-.1-241.401-.63-139.02 322.138c2.18-10.7 2.81-16.625 2.958-20.691.652-16.863-4.578-35.071-15.528-54.092-4.266-7.4-10.338-14.117-18.27-20.196 17.66-6.625 32.319-15.425 43.86-26.358 23.174-21.992 42.977-61.95 60.556-122.18 19.566-67.075 21.852-115.829 6.982-149.054-15.526-34.662-42.64-56.537-80.587-65.017-32.814-7.333-95.295-11.016-191.025-11.266l-155.085-.4zm-669.871 605.759l24.86-85.184 94.343.246-24.86 85.183-94.343-.245zm69.031-236.53l19.764-67.729 94.338.25-19.764 67.725-94.338-.246zm296.01.613l24.396-83.6c4.516.462 8.15 1.083 10.805 1.675-.246 2.941-1.019 7.687-3.133 14.908l-9.254 31.717c-7.605 26.058-13.49 32.312-14.512 33.241-1.432.642-4.33 1.375-8.302 2.059zm-1162.996-.217c17.665-6.625 32.323-15.43 43.86-26.37 13.734-13.022 26.285-32.368 37.89-58.51l-48.647 166.693c.439-3.246.625-5.63.696-7.513.65-16.904-4.58-35.117-15.537-54.12-4.267-7.392-10.33-14.105-18.262-20.18zm-155.96-92.092l33.735-115.608c6.86.77 10.565 1.954 12.333 2.7.277 2.867.21 10.229-4.152 25.179l-11.6 39.708c-11.303 38.771-19.951 44.33-20.314 44.546-1.848 1.004-4.98 2.321-10.002 3.475zm-159.339-282.18l-222.981 764.085 241.506.633 94.88-325.12c5.694.566 9.249 1.387 11.356 2.053-.116 6.013-1.836 21.204-11.937 55.788l-78.006 267.32 424.965 1.105 131.289-449.892-60.154 450.075 277.61.725 177.305-411.154-120.03 411.308 497.589 1.296 75.684-259.35c3.952.404 7.208.933 9.719 1.47-.716 6.251-2.883 17.984-9.02 39.005l-63.874 218.888 182.038.491 48.592-166.504c18.675-63.992 21.432-81.854 21.755-90.267.545-14.329-3.823-29.645-12.99-45.516-2.611-4.525-5.982-8.746-10.142-12.667 11.71-5.108 21.636-11.558 29.912-19.4 19.011-18.004 35.183-50.492 49.43-99.304 15.911-54.517 17.667-94.388 5.362-121.884-12.819-28.608-36.115-47.412-67.376-54.404-26.514-5.925-76.7-8.9-153.415-9.108l-606.806-1.575s-62.484 158.387-70.38 178.675c8.85-48.567 31.288-178.784 31.288-178.784l-384.564-.991-5.004 17.146c5.274-36.53 2.961-65.417-6.904-87.459-15.526-34.662-42.636-56.537-80.587-65.02-32.805-7.326-95.29-11.013-191.024-11.263l-155.086-.4z" fill="#fff" fill-rule="nonzero"/>
  <path d="M3883.724 3674.629h.96c40.984.1 78.24 6.49 103.43 19.15 25.19 12.68 39.683 28.56 43.473 47.71 3.79 19.15-.989 51.62-14.371 97.47l-6.662 22.78-146.554-.38 12.464-42.74c5.832-19.95 7.67-32.66 5.497-38.13-2.134-5.47-11.772-8.21-20.513-8.24h-.08c-9.46 0-17.69 3.66-24.69 10.98-7.029 7.36-12.712 18.54-17.081 33.51-5.627 19.25-7.133 33.74-4.486 43.5 2.386 9.76 13.824 21.54 34.305 35.37 58.693 39.81 93.45 72.45 104.274 97.9 10.823 25.46 7.988 66.45-8.506 122.97-11.993 41.08-25.889 71.34-41.679 90.79-15.81 19.44-40.122 35.72-72.967 48.83-32.578 13.01-67.957 19.51-106.107 19.51h-.86c-42.244-.1-80.238-7.81-105.66-23.09-25.441-15.26-39.35-34.68-41.735-58.21-2.375-23.53 2.74-56.91 15.346-100.13l11.02-37.76 146.574.38-20.48 70.18c-6.313 21.62-8.31 35.51-5.98 41.68 2.319 6.19 12.9 9.3 23.39 9.33h.13c10.45 0 19.352-3.9 26.725-11.71 7.402-7.82 13.38-19.43 17.882-34.87 9.915-33.96 11.517-56.19 4.815-66.66-6.952-10.47-26.463-27.99-58.565-52.55-32.03-24.81-52.769-42.8-62.266-53.99-9.497-11.2-15.536-26.67-18.176-46.39-2.61-19.73.556-44.92 9.489-75.56 12.903-44.16 28.247-76.44 46.074-96.83 17.836-20.4 41.68-36.33 71.524-47.77 29.598-11.35 62.956-17.03 100.046-17.03zm-533.91 10.72l344.862.9-33.684 115.41-93.718-.23-134.62 461.29-157.805-.41 134.62-461.3-93.34-.25 33.685-115.41zm-268.134-.69l228.11.59-78.055 576.95-165.445-.42 30.101-103.67-60.605-.15-35.573 103.62-167.325-.42 248.792-576.5zm-483.31-147.12l139.942.36c93.279.24 155.436 3.82 186.482 10.76 31.016 6.93 52.859 24.48 65.457 52.63 12.62 28.18 9.943 73.05-8.022 134.63-16.415 56.22-34.795 93.99-55.159 113.31-20.356 19.29-52.696 30.82-97.024 34.55 36.441 9.34 59.132 21.75 68.083 37.27 8.93 15.49 13.174 29.72 12.684 42.68-.481 12.93-9.246 48.57-26.257 106.88l-55.609 190.54-183.607-.49 70.06-240.07c11.289-38.67 15.059-62.62 11.35-71.88-3.727-9.22-19.212-13.88-46.455-13.95l-95.05 325.75-197.709-.52 210.833-722.45zm-440.906 144.7l111.7.29c74.467.2 124.089 3.06 148.876 8.6 24.766 5.53 42.172 19.52 52.25 42.01 10.069 22.5 7.94 58.31-6.406 107.47-13.097 44.88-27.787 75.04-44.03 90.43-16.254 15.41-42.068 24.61-77.46 27.62 29.093 7.43 47.205 17.34 54.354 29.73 7.139 12.36 10.512 23.72 10.119 34.06-.394 10.33-7.374 38.78-20.953 85.31l-44.392 152.11-138.223-.37 55.919-191.65c9.015-30.86 12.016-49.99 9.054-57.36-2.971-7.38-23.664-11.11-45.406-11.16l-75.882 260.04-157.824-.41 168.304-576.72zm-295.967-.77l263.154.69-33.684 115.41-105.33-.28-31.92 109.37 98.59.25-32.017 109.72-98.589-.26-37.01 126.81 115.831.31-33.684 115.42-273.646-.72 168.305-576.72zm-430.15-1.12l166.435.43c-27.01 158.93-52.42 293.36-76.246 403.35 40.587-111.11 78.026-209.75 112.349-295.92l42.245-107.22 166.435.43-248.612 576.51-239.712-.63 77.106-576.95zm-177.496-.46l157.814.4-168.294 576.72-157.815-.4 168.295-576.72zm-438.607-147l139.943.37c93.279.24 155.456 3.82 186.482 10.75 31.026 6.93 52.849 24.48 65.467 52.63 12.61 28.18 9.933 73.05-8.032 134.63-16.415 56.22-34.795 93.99-55.15 113.3-20.364 19.31-52.695 30.83-97.033 34.57 36.442 9.34 59.132 21.74 68.092 37.25 8.93 15.5 13.165 29.73 12.665 42.69-.481 12.93-9.236 48.57-26.247 106.88l-55.609 190.53-183.607-.47 70.06-240.08c11.289-38.66 15.069-62.62 11.35-71.87-3.727-9.24-19.212-13.89-46.455-13.96l-95.06 325.76-197.698-.52 210.832-722.46zm2349.192 276.5c-48.302 110.4-90.15 195.28-109.159 246.32l71.005.14c11.061-65.34 18.118-150.27 38.154-246.46zm-914.875 100.18c17.64 0 38.759-2.29 47.157-6.85 8.467-4.61 16.414-19.61 23.832-45.03l9.255-31.71c5.351-18.28 5.395-30.28.182-36-5.203-5.72-25.265-8.6-43.497-8.66l-37.44 128.24c.171.01.341.01.511.01zm464.183-87.27c21.91 0 38.119-2.86 48.646-8.57 10.595-5.79 20.558-24.59 29.848-56.42l11.58-39.71c6.698-22.92 6.775-37.94.25-45.11-6.534-7.16-21.212-10.78-44.065-10.84l-46.889 160.65h.63zm-1783.124-4.64c21.91 0 38.128-2.86 48.645-8.58 10.615-5.78 20.558-24.58 29.838-56.42l11.6-39.71c6.678-22.92 6.755-37.94.24-45.1-6.534-7.17-21.222-10.79-44.074-10.84l-46.88 160.65h.63z" fill="#223550" fill-rule="nonzero"/>
  <g>
    <path d="M1945.04 546.5h-.009c-111.658.009-220.796 35.742-307.33 100.617-67 50.23-116.262 109.73-146.424 176.842-29.971 66.696-39.45 138.813-27.417 208.55 17.525 101.584 78.77 189.73 167.308 246.492-124.966 45.15-245.187 117.784-358.238 216.555-112.2 98.033-218.146 222.491-314.896 369.92-210.129 320.21-314.462 648.605-349.567 774.935l-75.366 271.233 262.737-101.087c190.663-73.359 339.972-110.55 443.78-110.55 112.675.004 137.788 38.787 187.82 116.05 22.755 35.141 48.551 74.975 84.789 110.158 12.387 12.025 25.391 22.883 39 32.563l-415.105 106.329 430.65 156.654c245.821 89.421 505.392 134.763 771.501 134.763 240.567 0 484.667-39.017 687.346-109.863 89.292-31.212 168.83-68.23 230.009-107.046 77.854-49.391 126.563-101.154 148.92-158.237l21.43-54.717 88.363-13.763c47.312-7.375 93.866-16.066 129.137-22.816 136.921-26.2 394.942-99.063 460.134-129.942 65.367-30.954 117.267-65.425 158.667-105.375 61.666-59.504 97.454-128.917 106.366-206.313 10.025-87.05-15.441-178.287-75.695-271.18-56.9-87.716-144.592-178.079-268.088-276.25-18.646-14.82-35.904-28.191-51.33-39.762-172.22-137.42-422.833-260.321-603.058-339.342-188.588-82.687-387.18-154.888-535.626-195.32-40.625-242.097-160.52-422.151-338.396-508.026-50.2-26.542-103.908-43.8-157.958-50.954a384.23 384.23 0 00-18.209-31.38c-27.287-42.266-62.591-78.712-104.929-108.329-75.046-52.496-171.046-81.408-270.317-81.408z" fill="#a8803b" fill-rule="nonzero"/>
    <path d="M1945.019 642.334c-91.038 0-179.763 28.93-249.83 81.458-105.42 79.038-155.32 185.626-136.892 292.422 17.459 101.179 95.113 184.816 202.663 218.279 15.663 4.87 39.57 15.32 59.692 30.042 19.237 14.066 24.191 24.325 24.608 26.741-.883 2.067-14.737 29.163-118.933 57.925-136.025 37.546-267.355 111.071-390.342 218.525-105.646 92.305-205.85 210.176-297.826 350.33-202.725 308.917-303.454 626.017-337.354 748.009l-24.383 87.754 85.004-32.704c201.675-77.596 362.563-116.942 478.196-116.942 74.534 0 132.167 16.017 176.204 48.98 39.45 29.524 65.013 69.004 92.076 110.812 41.804 64.575 89.183 137.767 191.341 154.354 35.867 5.83 71.355 8.78 105.484 8.78 82.258 0 160.454-16.792 237.208-51.117-98.875 58.362-238.842 117.208-438.104 168.25l-143.625 36.787 139.329 50.684c248.458 90.383 507.959 136.208 771.292 136.208 213.08 0 428.234-31.858 605.826-89.704 75.133-24.47 142.012-53.183 193.412-83.038 54.442-31.625 90.088-63.487 105.938-94.7l11.28-22.212-12.51-21.55c-11.058-19.05-6.358-33.963 11.08-75.138 12.067-28.491 27.08-63.954 30.35-107.033l9.367-123.225-87.45 87.32c-82.959 82.834-149.242 134.172-223.267 134.172-26.967 0-56.163-6.638-88.421-20.18 52.15-68.783 112.796-123.658 180.787-163.508 83.226-48.78 175.184-73.509 273.317-73.509 51.009 0 103.621 6.767 157.117 20.167-35.958 30.934-85.2 65.509-121.33 87.942l-51.32 31.846 44.492 40.85 31.05 28.516 16.475 15.126 22.062-3.68s110.717-18.454 166.167-27.729c170.609-28.537 348.209-103.767 416.646-134.792 128.638-58.308 199.9-136.7 211.805-233 8.008-64.754-12.192-135.262-60.03-209.57-50.533-78.488-134.12-164.363-248.442-255.239-18.425-14.645-35.366-27.762-50.37-38.995-88.28-70.609-260.838-183.534-582.138-321.371-190.913-81.9-407.509-160.721-579.384-210.855-1.417-.412-2.367-.791-2.95-1.058-1.904-5.1-2.53-19.246-2.95-28.804-.296-6.705-.6-13.642-1.213-21.059-9.333-113.512-58.712-235.592-132.079-326.562-41.08-50.934-88.213-91.192-140.08-119.663-58.033-31.854-120.42-48.004-185.437-48.008-5.129-.005-10.296.1-15.479.304-19.267-62.484-57.667-114.996-112.646-153.48-59.108-41.37-135.642-64.158-215.483-64.158z" fill="#fff" fill-rule="nonzero"/>
    <path d="M744.968 2678.34c889.817-342.367 700.513 152.337 961.625 194.742 261.109 42.404 439.813-84.142 633.188-282.692-23.658 33.775-21.025 318.025-724.575 498.238 815.967 296.825 1551.993 24.875 1619.93-108.909-39.283-67.675 28.642-120.154 35.367-208.654-140.267 140.063-239.971 196.02-412.321 98.833 166.12-253 439.97-369.946 762.455-256.996-34.509 59.367-180.146 149.75-180.146 149.75l31.054 28.517s110.704-18.458 166.142-27.73c145.862-24.395 304.196-85.507 405.287-131.328 178.188-80.771 353.046-255.071-106.266-620.188-18.746-14.905-35.346-27.738-49.905-38.625-280.316-224.563-863.325-441.938-1146.296-524.472-43.071-12.562-36.609-50.383-39.963-91.166-17.692-215.146-193.733-487.022-462.85-448.48-37.23-227.58-335.271-283.47-515.009-148.717-200.7 150.471-133.592 372.559 51.892 430.263 77.32 24.054 235.554 127.68-36.054 202.655-551.688 152.287-882.585 885.588-993.555 1284.959z" fill="#223550" fill-rule="nonzero"/>
    <path d="M2955.836 1633.264l298.05 107.163c-19.804 168.862-247.02 132.708-298.05-107.163z" fill="#fff" fill-rule="nonzero"/>
    <path d="M2567.123 1756.71c44.246-68.642 174.534-111.358 297.125-137.913-16.258 88.696 78.588 190.884 78.588 190.884-62.396 29.725-146.93-46.154-146.93-46.154 228.088 291.525 435.73 201.416 500.61 119.104l503.033 228.075-251.75-208.333s183.78 37.629 410.159 200.133c2.945 2.98 5.937 5.992 8.962 9.042 101.9 76.012 268.18 296.05 181.017 369.07-78.304 65.605-76.3-42.903-146.175-201.616-38.146 69.825-71.154 131.758-159.288 94.783-42.029-17.633-102.042 39.325-155.042 44.013-157.129 13.9-314.825 18.608-470.183 17.317 175.662-32.634 466.408-71.717 526.63-100.35 68.524-32.584 69.52-83.725 69.52-83.725-371.242-133.834-929.363 74.333-1218.217 129.987 0 0 297.829-188.167 876.934-275.633-143.38-5.367-550.297-6.238-637.372-9.063-105.325-3.42-187.292-63.5-261.587-150.98-56.342-66.34-48.663-122.524-6.034-188.641zM2590.632 1477.73c-22.038-137.383-113.426-326.966-235.821-428.104 70.175 4.896 120.945 75.25 180.529 148.134-31.204-115.83-105.463-211.759-218.784-219.867-100.187-7.175-205.037 25.133-243.975 145.92-55.962 173.622 57.463 275.038 155.821 384.405-123.504-51.812-214.47-177.025-216.863-305.513-2.466-132.525 57.655-259.52 195.663-288.662 348.613-73.609 461.038 322.154 383.43 563.688z" fill="#7c8081" fill-rule="nonzero"/>
  </g>
</svg>
