<?xml version="1.0" encoding="UTF-8" standalone="no"?>
<!DOCTYPE svg PUBLIC "-//W3C//DTD SVG 1.1//EN" "http://www.w3.org/Graphics/SVG/1.1/DTD/svg11.dtd">
<svg width="100%" height="100%" viewBox="0 0 323 363" version="1.1" xmlns="http://www.w3.org/2000/svg" xmlns:xlink="http://www.w3.org/1999/xlink" xml:space="preserve" xmlns:serif="http://www.serif.com/" style="fill-rule:evenodd;clip-rule:evenodd;stroke-linejoin:round;stroke-miterlimit:2;">
    <g transform="matrix(1,0,0,1,-0.193287,-0.000585284)">
        <g transform="matrix(0.000999747,0,0,0.000999747,0.193335,0)">
            <path d="M289455,16834C315905,31458 313101,50948 301970,74180C292976,92950 283310,111323 274619,130313C265896,149374 257534,168105 249913,187653C242432,206842 236487,227118 227730,245673C207425,288693 176285,305959 165897,324530C160616,333973 160759,345949 147624,348553C134399,351174 99639,340591 86690,335077C64580,325662 51264,314708 31723,302147C1421,282667 25428,277051 25347,246207C25288,223371 23989,206441 27884,183323C32487,156007 55044,75921 89693,76328C101376,76466 102906,88111 119919,84259C134292,81003 137282,78717 151009,86684C156953,90133 159503,95684 165209,93957C194458,85102 201760,101834 209858,104426C220682,79182 252290,-3715 289455,16834ZM319,290589L3473,296110C6378,299766 11345,304493 19252,311309C49792,337634 118812,367911 160234,362446L165384,359504C169079,352593 169056,346040 173214,338453C183408,319853 208208,299392 222637,281522C243637,255516 248253,227735 259646,197662C270390,169299 284003,141186 297776,114163C311641,86958 329322,57015 319588,26083L315775,19410C272784,-22977 243293,11768 221006,50140C216393,58082 207950,77795 203100,83411C188608,79217 184834,78939 169871,80204C167181,80431 149653,69315 139469,68010C133599,67258 127476,67855 121832,69833C109960,73993 116811,74673 105375,69442C88391,61675 85640,67854 71265,69717L63201,74323C37953,96174 25779,133340 19076,165283C12155,198262 16772,236878 9262,265319C5337,280181 -1564,284039 319,290589ZM271723,98024C258873,104671 245244,95096 239295,83548C243727,85523 249432,90683 254811,93402C260325,96189 266052,97731 271723,98024ZM291504,78234C300891,61186 309442,46428 293127,30267C274390,11707 261346,25891 250933,43135C242152,57676 233532,71842 226414,87325C213864,114626 206953,157752 189112,179021C193371,182848 205420,187219 211416,191462C223155,199769 222987,203422 230620,214578C253422,167532 263614,128885 291504,78234ZM215825,138188C218184,139450 219448,141929 223215,144643C230708,150042 236708,152271 246071,153322C234199,160695 220545,148856 215825,138188ZM204632,126383C210381,102535 177776,92613 164334,102768C156533,108662 148124,143356 146696,153657C146056,158281 145942,162969 145793,167618C145525,175995 149606,172963 155381,173038C159958,173096 180010,177190 182022,175834C186623,172735 202909,133529 204632,126383ZM149167,114202C153973,100672 159285,99672 145061,92465C135959,87853 125861,86572 117262,93020C106372,101186 102720,131726 103111,144704C103442,155668 106459,165496 116797,170866C121443,173280 125045,173725 130211,173800C146170,174028 127709,174615 149167,114202ZM98740,161171C93599,138193 94548,133886 100886,111278C103804,100866 110949,96841 100548,88974C92552,82927 82261,85869 74901,91517C62952,100687 60408,124648 62603,138546C66964,166152 100008,166840 98740,161171ZM173223,182781C117857,168854 116729,223342 179509,245029C146449,247020 135871,223601 127601,217511C106552,202010 84666,217743 67300,219548C72129,212919 88915,206420 97244,205004C108915,203021 114600,205448 124667,205310C121703,196439 127248,190275 130548,183418C122402,178815 117918,182722 106497,172911C103344,170202 86808,171847 80726,170449C54798,164485 56932,145166 54068,125394C43950,138976 33273,185970 32258,203621C31460,217508 32219,231254 31875,245114C31400,264234 28499,267585 23604,284474C51936,309461 86634,330567 124166,337518C160450,344238 146371,337781 165670,313406C178364,297371 194349,283660 206360,267284C218090,251290 230672,234364 221348,214108C213102,196196 191277,187322 173223,182781Z" style="fill:white;"/>
        </g>
    </g>
</svg>
