<svg xmlns="http://www.w3.org/2000/svg" xml:space="preserve" style="fill-rule:evenodd;clip-rule:evenodd;stroke-linejoin:round;stroke-miterlimit:2" viewBox="0 0 323 363">
  <path d="M289.382 16.829c26.443 14.62 23.64 34.106 12.512 57.332-8.992 18.765-18.656 37.133-27.344 56.118-8.721 19.057-17.081 37.783-24.7 57.326-7.479 19.184-13.423 39.455-22.178 58.005-20.299 43.009-51.432 60.271-61.817 78.837-5.28 9.441-5.137 21.414-18.268 24.017-13.222 2.621-47.973-7.96-60.919-13.472-22.104-9.413-35.417-20.364-54.953-32.922-30.294-19.475-6.293-25.09-6.374-55.926-.059-22.83-1.358-39.756 2.536-62.868C32.479 155.967 55.03 75.901 89.67 76.308c11.68.138 13.21 11.78 30.219 7.929 14.369-3.255 17.358-5.541 31.082 2.424 5.942 3.449 8.492 8.998 14.196 7.272 29.242-8.853 36.542 7.875 44.638 10.466 10.821-25.238 42.421-108.114 79.577-87.57ZM.319 290.515l3.153 5.519c2.904 3.656 7.87 8.381 15.775 15.196 30.532 26.318 99.535 56.587 140.947 51.124l5.148-2.942c3.694-6.909 3.671-13.46 7.828-21.045 10.192-18.596 34.985-39.051 49.411-56.917 20.994-25.999 25.609-53.773 36.999-83.839 10.742-28.355 24.351-56.461 38.121-83.477C311.562 86.935 329.239 57 319.507 26.076l-3.812-6.671c-42.98-42.377-72.464-7.641-94.745 30.722-4.612 7.94-13.053 27.648-17.901 33.262-14.489-4.193-18.262-4.471-33.221-3.206-2.689.227-20.213-10.886-30.394-12.191-5.869-.752-11.99-.155-17.633 1.823-11.869 4.159-5.02 4.839-16.453-.391-16.979-7.765-19.73-1.588-34.101.275l-8.062 4.605c-25.242 21.845-37.412 59.002-44.114 90.937-6.919 32.97-2.303 71.576-9.811 100.01C5.336 280.11-1.564 283.967.319 290.515ZM271.654 97.999c-12.846 6.645-26.472-2.928-32.419-14.473 4.43 1.975 10.134 7.133 15.512 9.852 5.512 2.786 11.238 4.328 16.907 4.621Zm19.776-19.785c9.385-17.044 17.934-31.798 1.623-47.955-18.732-18.556-31.773-4.375-42.183 12.865-8.779 14.537-17.397 28.699-24.513 44.178-12.547 27.294-19.456 70.41-37.293 91.673 4.258 3.826 16.304 8.196 22.299 12.438 11.736 8.305 11.568 11.957 19.199 23.11 22.796-47.034 32.985-85.671 60.868-136.309Zm-75.66 59.938c2.359 1.262 3.623 3.741 7.389 6.454 7.491 5.397 13.489 7.626 22.85 8.677-11.869 7.371-25.52-4.465-30.239-15.131Zm-11.19-11.802c5.748-23.842-26.849-33.761-40.288-23.609-7.799 5.893-16.205 40.578-17.633 50.877-.64 4.622-.754 9.309-.903 13.957-.268 8.375 3.812 5.344 9.586 5.419 4.576.058 24.623 4.151 26.634 2.795 4.6-3.098 20.882-42.294 22.604-49.439Zm-55.451-12.177c4.805-13.527 10.116-14.527-4.105-21.732-9.099-4.611-19.195-5.891-27.792.555-10.887 8.164-14.538 38.696-14.147 51.671.331 10.961 3.347 20.787 13.682 26.155 4.645 2.414 8.246 2.858 13.411 2.933 15.955.228-2.501.815 18.951-59.582ZM98.715 161.13c-5.14-22.973-4.191-27.278 2.146-49.881 2.917-10.409 10.06-14.433-.338-22.298-7.994-6.046-18.283-3.104-25.641 2.542-11.946 9.168-14.489 33.123-12.295 47.017 4.36 27.599 37.396 28.287 36.128 22.62Zm74.464 21.604c-55.352-13.923-56.479 40.551 6.285 62.232-33.052 1.991-43.627-21.422-51.895-27.511-21.044-15.497-42.924.232-60.286 2.037 4.828-6.627 21.61-13.125 29.936-14.54 11.668-1.983 17.352.443 27.417.305-2.964-8.868 2.58-15.031 5.879-21.886-8.144-4.602-12.627-.696-24.045-10.504-3.152-2.709-19.684-1.064-25.764-2.462-25.922-5.962-23.788-25.276-26.652-45.043-10.115 13.578-20.789 60.56-21.804 78.207-.798 13.883-.039 27.626-.383 41.482-.475 19.116-3.375 22.466-8.269 39.35 28.325 24.981 63.014 46.082 100.537 53.031 36.274 6.718 22.199.263 41.493-24.106 12.691-16.031 28.672-29.738 40.68-46.11 11.727-15.99 24.306-32.912 14.984-53.163-8.244-17.907-30.063-26.779-48.113-31.319Z" style="fill:#f2f2f2"/>
</svg>
